<svg xmlns="http://www.w3.org/2000/svg" width="24" height="24" viewBox="0 0 24 24" fill="none" stroke="#0ea5e9" stroke-width="2" stroke-linecap="round" stroke-linejoin="round">
  <path d="M16 22s-.9-4.1-1.5-5c-.3-.5-1.3-.5-1.5.3-.2 1-1.1 4.7-1.1 4.7"/>
  <path d="M19 22s-.9-4.1-1.5-5c-.3-.5-1.3-.5-1.5.3-.2 1-1.1 4.7-1.1 4.7"/>
  <path d="M15 22H9"/>
  <path d="M14 17H4a1 1 0 0 1-1-1c0-1.5 1.4-3 3-3s3 1 3 3"/>
  <path d="M20 17h-6a1 1 0 0 1-1-1c0-1.5 1.4-3 3-3 .6 0 1.3.1 1.8.4"/>
  <circle cx="15" cy="7" r="5"/>
</svg>